<?xml version="1.0" encoding="UTF-8" standalone="no"?>
<!DOCTYPE svg PUBLIC "-//W3C//DTD SVG 1.1//EN" "http://www.w3.org/Graphics/SVG/1.1/DTD/svg11.dtd">
<svg width="100%" height="100%" viewBox="0 0 148 360" version="1.1" xmlns="http://www.w3.org/2000/svg" xmlns:xlink="http://www.w3.org/1999/xlink" xml:space="preserve" xmlns:serif="http://www.serif.com/" style="fill-rule:evenodd;clip-rule:evenodd;stroke-linecap:square;stroke-miterlimit:1.5;">
    <g transform="matrix(1,0,0,1,-510.382,-728.326)">
        <g transform="matrix(1.3243,0,0,1.3243,412.245,579.082)">
            <path d="M130.624,205.16L130.624,375.921" style="fill:none;stroke:rgb(21,23,99);stroke-width:4.72px;"/>
        </g>
        <g transform="matrix(1.3243,0,0,0.662149,412.245,827.997)">
            <path d="M130.624,205.16L130.624,375.921" style="fill:none;stroke:rgb(21,23,99);stroke-width:11.94px;stroke-linecap:round;"/>
        </g>
        <g transform="matrix(0.423981,0,0,1.32651,533.711,550.912)">
            <path d="M121.511,192.961L128.879,228.976L114.143,228.976L121.511,192.961Z" style="fill:rgb(21,23,99);"/>
        </g>
        <g transform="matrix(0.774006,0,0,0.774006,294.806,641.231)">
            <g>
                <g transform="matrix(1.13237,0,0,1.13237,186.354,-47.8728)">
                    <path d="M166.459,145.214C166.459,145.214 182.032,171.742 182.377,185.422C182.722,199.102 168.529,227.293 168.529,227.293C168.529,227.293 151.044,199.051 150.699,185.371C150.354,171.691 166.459,145.214 166.459,145.214Z" style="fill:none;stroke:rgb(21,23,99);stroke-width:7.13px;stroke-linecap:round;stroke-linejoin:round;"/>
                </g>
                <g transform="matrix(0.75814,-0.841116,0.841116,0.75814,54.9881,178.553)">
                    <path d="M166.459,145.214C166.459,145.214 182.032,171.742 182.377,185.422C182.722,199.102 168.529,227.293 168.529,227.293C168.529,227.293 151.044,199.051 150.699,185.371C150.354,171.691 166.459,145.214 166.459,145.214Z" style="fill:none;stroke:rgb(21,23,99);stroke-width:7.13px;stroke-linecap:round;stroke-linejoin:round;"/>
                </g>
                <g transform="matrix(-0.75814,-0.841116,-0.841116,0.75814,694.63,178.553)">
                    <path d="M166.459,145.214C166.459,145.214 182.032,171.742 182.377,185.422C182.722,199.102 168.529,227.293 168.529,227.293C168.529,227.293 151.044,199.051 150.699,185.371C150.354,171.691 166.459,145.214 166.459,145.214Z" style="fill:none;stroke:rgb(21,23,99);stroke-width:7.13px;stroke-linecap:round;stroke-linejoin:round;"/>
                </g>
                <g transform="matrix(-0.36646,-1.07143,-1.07143,0.36646,681.37,305.822)">
                    <path d="M166.459,145.214C166.459,145.214 182.032,171.742 182.377,185.422C182.722,199.102 168.529,227.293 168.529,227.293C168.529,227.293 151.044,199.051 150.699,185.371C150.354,171.691 166.459,145.214 166.459,145.214Z" style="fill:none;stroke:rgb(21,23,99);stroke-width:7.13px;stroke-linecap:round;stroke-linejoin:round;"/>
                </g>
                <g transform="matrix(0.36646,-1.07143,1.07143,0.36646,65.9705,305.822)">
                    <path d="M166.459,145.214C166.459,145.214 182.032,171.742 182.377,185.422C182.722,199.102 168.529,227.293 168.529,227.293C168.529,227.293 151.044,199.051 150.699,185.371C150.354,171.691 166.459,145.214 166.459,145.214Z" style="fill:none;stroke:rgb(21,23,99);stroke-width:7.13px;stroke-linecap:round;stroke-linejoin:round;"/>
                </g>
                <g transform="matrix(0.980657,0.566183,-0.566183,0.980657,337.422,-108.809)">
                    <path d="M166.459,145.214C166.459,145.214 182.032,171.742 182.377,185.422C182.722,199.102 168.529,227.293 168.529,227.293C168.529,227.293 151.044,199.051 150.699,185.371C150.354,171.691 166.459,145.214 166.459,145.214Z" style="fill:none;stroke:rgb(21,23,99);stroke-width:7.13px;stroke-linecap:round;stroke-linejoin:round;"/>
                </g>
                <g transform="matrix(0.980657,-0.566183,0.566183,0.980657,86.2976,82.0276)">
                    <path d="M166.459,145.214C166.459,145.214 182.032,171.742 182.377,185.422C182.722,199.102 168.529,227.293 168.529,227.293C168.529,227.293 151.044,199.051 150.699,185.371C150.354,171.691 166.459,145.214 166.459,145.214Z" style="fill:none;stroke:rgb(21,23,99);stroke-width:7.13px;stroke-linecap:round;stroke-linejoin:round;"/>
                </g>
            </g>
        </g>
        <g transform="matrix(1.05853,0,0,1.0138,4.79838,712.694)">
            <circle cx="548.049" cy="97.807" r="9.106" style="fill:rgb(21,23,99);"/>
        </g>
        <g transform="matrix(1.05853,0,0,1.0138,4.79838,751.944)">
            <circle cx="548.049" cy="97.807" r="9.106" style="fill:rgb(21,23,99);"/>
        </g>
        <g transform="matrix(1.05853,0,0,1.0138,4.79838,793.193)">
            <circle cx="548.049" cy="97.807" r="9.106" style="fill:rgb(21,23,99);"/>
        </g>
        <g transform="matrix(1.05853,0,0,1.0138,4.79838,836.42)">
            <circle cx="548.049" cy="97.807" r="9.106" style="fill:rgb(21,23,99);"/>
        </g>
        <g transform="matrix(0.796968,0,0,0.76329,166.851,852.704)">
            <circle cx="548.049" cy="97.807" r="9.106" style="fill:rgb(21,23,99);"/>
        </g>
        <g transform="matrix(0.796968,0,0,0.76329,148.149,840.33)">
            <circle cx="548.049" cy="97.807" r="9.106" style="fill:rgb(21,23,99);"/>
        </g>
        <g transform="matrix(0.796968,0,0,0.76329,129.7,852.704)">
            <circle cx="548.049" cy="97.807" r="9.106" style="fill:rgb(21,23,99);"/>
        </g>
        <g transform="matrix(0.796968,0,0,0.76329,134.84,876.126)">
            <circle cx="548.049" cy="97.807" r="9.106" style="fill:rgb(21,23,99);"/>
        </g>
        <g transform="matrix(0.796968,0,0,0.76329,162.811,876.126)">
            <circle cx="548.049" cy="97.807" r="9.106" style="fill:rgb(21,23,99);"/>
        </g>
        <g transform="matrix(1.05853,0,0,1.0138,4.79838,879.647)">
            <circle cx="548.049" cy="97.807" r="9.106" style="fill:rgb(21,23,99);"/>
        </g>
        <g transform="matrix(1.05853,0,0,1.0138,4.79838,924.591)">
            <circle cx="548.049" cy="97.807" r="9.106" style="fill:rgb(21,23,99);"/>
        </g>
        <g transform="matrix(1.05853,0,0,1.0138,4.79838,969.536)">
            <circle cx="548.049" cy="97.807" r="9.106" style="fill:rgb(21,23,99);"/>
        </g>
    </g>
</svg>
